<?xml version="1.0" encoding="iso-8859-1"?>
<!-- Generator: Adobe Illustrator 19.1.0, SVG Export Plug-In . SVG Version: 6.00 Build 0)  -->
<svg version="1.1" id="Capa_1" xmlns="http://www.w3.org/2000/svg" xmlns:xlink="http://www.w3.org/1999/xlink" x="0px" y="0px"
	 viewBox="0 0 496.243 496.243" style="enable-background:new 0 0 496.243 496.243;" xml:space="preserve">
<g>
	<g>
		<g>
			<g>
				<path d="M391.105,177.229c15.464,0,30.742-4.114,44.218-11.877c42.308-24.438,56.856-78.732,32.418-121.041
					C451.967,16.97,422.56,0,390.965,0c-15.495,0-30.773,4.114-44.249,11.893c-20.494,11.846-35.151,30.943-41.268,53.798
					c-6.133,22.87-2.997,46.749,8.85,67.243C330.056,160.244,359.478,177.229,391.105,177.229L391.105,177.229z M340.195,75.006
					c3.633-13.57,12.343-24.919,24.531-31.953c8.011-4.627,17.079-7.064,26.223-7.064c18.771,0,36.238,10.076,45.615,26.301
					c7.033,12.172,8.881,26.363,5.279,39.933c-3.633,13.57-12.343,24.919-24.5,31.953c-8.011,4.611-17.079,7.049-26.223,7.049
					c-18.802,0-36.269-10.076-45.631-26.317C338.425,102.751,336.546,88.576,340.195,75.006L340.195,75.006z M188.133,212.396
					c34.297-19.796,68.578-39.607,102.86-59.403c14.47-8.337,1.428-30.742-13.073-22.373
					c-34.281,19.796-68.578,39.607-102.86,59.387C160.59,198.36,173.647,220.749,188.133,212.396z M478.625,384.704
					c-6.133-22.87-20.774-41.982-41.268-53.813c-13.461-7.763-28.785-11.877-44.249-11.877c-31.564,0-61.017,16.985-76.807,44.311
					c-24.407,42.324-9.89,96.618,32.449,121.025c13.461,7.779,28.754,11.893,44.249,11.893c31.595,0,61.017-16.985,76.776-44.311
					C481.59,431.437,484.742,407.573,478.625,384.704z M438.599,433.952c-9.378,16.225-26.844,26.301-45.615,26.301
					c-9.191,0-18.259-2.438-26.254-7.08c-25.106-14.486-33.754-46.733-19.252-71.839c9.393-16.225,26.86-26.317,45.631-26.317
					c9.191,0,18.259,2.438,26.223,7.049c12.188,7.033,20.898,18.367,24.531,31.953C447.495,407.604,445.632,421.78,438.599,433.952
					L438.599,433.952z M293.073,343.265c-34.297-19.796-68.594-39.607-102.891-59.387c-14.501-8.384-27.528,14.02-13.073,22.373
					c34.297,19.796,68.578,39.591,102.86,59.387C294.455,374.006,307.528,351.602,293.073,343.265z M86.95,177.509
					c-39.917,0-72.382,32.465-72.382,72.367c0,39.917,32.465,72.367,72.382,72.367c39.902,0,72.382-32.449,72.382-72.367
					C159.332,209.974,126.852,177.509,86.95,177.509L86.95,177.509z M86.95,286.253c-20.075,0-36.393-16.302-36.393-36.377
					c0-20.06,16.318-36.393,36.393-36.393c20.06,0,36.393,16.333,36.393,36.393C123.327,269.951,107.01,286.253,86.95,286.253z"/>
			</g>
		</g>
	</g>
</g>
<g>
</g>
<g>
</g>
<g>
</g>
<g>
</g>
<g>
</g>
<g>
</g>
<g>
</g>
<g>
</g>
<g>
</g>
<g>
</g>
<g>
</g>
<g>
</g>
<g>
</g>
<g>
</g>
<g>
</g>
</svg>
