<?xml version="1.0" encoding="iso-8859-1"?>
<!-- Generator: Adobe Illustrator 19.1.0, SVG Export Plug-In . SVG Version: 6.00 Build 0)  -->
<svg version="1.1" id="Capa_1" xmlns="http://www.w3.org/2000/svg" xmlns:xlink="http://www.w3.org/1999/xlink" x="0px" y="0px"
	 viewBox="0 0 496.831 496.831" style="enable-background:new 0 0 496.831 496.831;" xml:space="preserve">
<g>
	<g>
		<path d="M495.807,188.393c-1.304-5.574-6.552-18.849-27.419-22.031l-117.051-17.777c-7.701-1.18-18.74-9.564-22.202-16.939
			L276.766,20.82C267.916,2.018,254.005,0,248.431,0c-5.574,0-19.47,2.034-28.397,20.836l-52.323,110.825
			c-3.509,7.375-14.486,15.759-22.202,16.939L28.443,166.377C7.576,169.56,2.328,182.834,1.024,188.408
			c-1.273,5.512-2.391,19.703,14.61,32.325l103.916,77.211c4.145,3.059,6.102,10.853,3.913,15.712l-62.12,142.249
			c-5.388,12.188-5.62,22.404-0.699,30.415c4.083,6.661,10.946,10.511,18.864,10.511c6.397,0,13.057-2.608,20.355-7.887
			l133.601-97.286c4.829-3.462,15.976-3.633,20.867-0.279l143.678,98.249c16.256,11.163,31.751,8.71,39.141-3.276
			c5.061-8.074,4.999-18.321-0.155-30.478l-63.89-141.737c-2.158-5.061-0.062-13.104,4.192-16.287l103.885-77.149
			C498.198,208.064,497.08,193.904,495.807,188.393L495.807,188.393z M355.001,267.032c-18.585,13.834-25.928,41.672-16.768,63.346
			l48.581,105.499l-111.477-76.233c-8.617-5.884-19.671-9.098-31.161-9.098c-12.095,0-23.646,3.524-32.574,9.921l-97.612,71.326
			l44.078-101.276c9.564-21.674,2.422-49.575-16.271-63.47L54.96,202.536l96.106-14.594c20.386-3.09,41.749-19.299,50.817-38.505
			l46.531-98.544l46.578,98.528c9.036,19.221,30.384,35.399,50.786,38.505l96.09,14.594L355.001,267.032L355.001,267.032z"/>
	</g>
</g>
<g>
</g>
<g>
</g>
<g>
</g>
<g>
</g>
<g>
</g>
<g>
</g>
<g>
</g>
<g>
</g>
<g>
</g>
<g>
</g>
<g>
</g>
<g>
</g>
<g>
</g>
<g>
</g>
<g>
</g>
</svg>
